<svg xmlns="http://www.w3.org/2000/svg" width="773.609" height="268.112" viewBox="0 0 773.609 268.112">
  <g id="组_10213" data-name="组 10213" transform="translate(-346.221 -15517.75)">
    <path id="路径_21271" data-name="路径 21271" d="M73.049-68.185H13.068A13.083,13.083,0,0,0,0-55.117V.129H15.681V-52.5H73.049a5.364,5.364,0,0,1,5.358,5.358,5.364,5.364,0,0,1-5.358,5.358H26.136v15.681H73.049A21.063,21.063,0,0,0,94.088-47.146,21.063,21.063,0,0,0,73.049-68.185Zm32.563,52.613L105.666.109l51.329-.177h3.07V-.079l38.644-.133-.054-15.681-38.59.133V-52.35l38.644-.133-.054-15.681-38.59.133v-.076H144.384v.13l-38.772.134.054,15.681,38.718-.134v36.59l-38.772.134ZM249.88-.051h59.784V-15.733H249.88a18.316,18.316,0,0,1-18.3-18.3,18.315,18.315,0,0,1,18.3-18.295h59.784V-68H249.88A34.015,34.015,0,0,0,215.9-34.028,34.015,34.015,0,0,0,249.88-.051Zm85.129-.72a13.011,13.011,0,0,0,14.3-3.072l.751-.782,23.8-44.579,23.8,44.579.751.782a13.013,13.013,0,0,0,9.4,4.026,13.115,13.115,0,0,0,4.9-.954,13.01,13.01,0,0,0,8.189-12.124V-67.944H405.227v44.188L384.04-63.439l-.75-.782a13.132,13.132,0,0,0-9.426-4.018h0a13.131,13.131,0,0,0-9.426,4.017l-.751.782L342.5-23.756V-67.944H326.82v55.049A13.01,13.01,0,0,0,335.009-.771ZM469.762-26.056l60,.261.068-15.681-60-.261Zm0,25.874,60,.261.068-15.681L469.8-15.864a18.316,18.316,0,0,1-18.3-18.3,18.309,18.309,0,0,1,18.261-18.3l60,.261.068-15.681L469.8-68.135a34.015,34.015,0,0,0-33.976,33.976A34.008,34.008,0,0,0,469.762-.182Z" transform="translate(590 15694)" fill="#fff"/>
    <g id="snowflake-icon" transform="matrix(0.966, 0.259, -0.259, 0.966, 392.997, 15565.273)">
      <path id="路径_21270" data-name="路径 21270" d="M69.6,96.927a11.027,11.027,0,0,1,10.263,10.725l0,.228,0,61.843a11.1,11.1,0,0,1-22.189.219l0-.219,0-42.84-21.12,12.073a11.127,11.127,0,0,1-15.144-4,10.978,10.978,0,0,1,3.849-14.929l.2-.12,37.7-21.542A11,11,0,0,1,69.6,96.927Zm44.765,1.288.265.148L152.323,119.9a10.981,10.981,0,0,1,4.06,15.05,11.12,11.12,0,0,1-14.935,4.119l-.208-.117-21.105-12.073v24.125a11.1,11.1,0,0,1-22.19.219l0-.219V107.881a11.157,11.157,0,0,1,16.426-9.665ZM16.441,42.279l.208.116L54.318,63.951a10.948,10.948,0,0,1,5.162,6.6,11.434,11.434,0,0,1,.4,2.6,11.034,11.034,0,0,1-5.315,9.709L54.318,83,16.649,104.574A11.144,11.144,0,0,1,1.5,100.564,10.934,10.934,0,0,1,5.351,85.649l.2-.119L26.6,73.5,5.554,61.434A10.9,10.9,0,0,1,1.5,46.428,11.137,11.137,0,0,1,16.441,42.279Zm159.87,4.148a10.911,10.911,0,0,1-4.06,15.006L151.2,73.5,172.251,85.53a10.94,10.94,0,0,1,4.06,15.034,11.154,11.154,0,0,1-15.15,4.01L123.464,83a10.917,10.917,0,0,1-5.033-6.277,10.9,10.9,0,0,1-.107-6.176,11.053,11.053,0,0,1,5.14-6.6l37.7-21.556A11.149,11.149,0,0,1,176.312,46.428ZM109.032-49.2a11.048,11.048,0,0,1,11.1,10.769l0,.219V20.093L141.241,8.005a11.135,11.135,0,0,1,15.143,4.017,10.962,10.962,0,0,1-3.855,14.916l-.2.12L114.634,48.621a11.159,11.159,0,0,1-16.689-9.3l0-.228v-77.3A11.033,11.033,0,0,1,109.032-49.2ZM68.779-15.028A11.054,11.054,0,0,1,79.866-4.259l0,.219V39.088a11.166,11.166,0,0,1-16.439,9.679l-.265-.147-37.7-21.562a10.961,10.961,0,0,1-4.054-15.037A11.142,11.142,0,0,1,36.349,7.889l.207.116,21.12,12.087V-4.04A11.044,11.044,0,0,1,68.779-15.028Z" transform="translate(0)" fill="#fff"/>
    </g>
  </g>
</svg>
